<svg xmlns="http://www.w3.org/2000/svg" width="800" height="520" font-family="Arial, sans-serif">
  <!-- Background -->
  <rect width="800" height="520" fill="#f5f7fa"/>

  <!-- Header bar -->
  <rect x="0" y="0" width="800" height="52" fill="#d0d8e4" rx="0"/>
  <text x="20" y="32" font-size="14" fill="#333" font-weight="bold">[ SJSU Academic Advising Scheduler ]</text>
  <text x="530" y="32" font-size="12" fill="#666">[ Home ]  [ Slots ]  [ Appointments ]</text>

  <!-- Hero section -->
  <rect x="0" y="52" width="800" height="160" fill="#c5d5e8" rx="0"/>
  <rect x="220" y="80" width="360" height="30" fill="#a0b8d0" rx="4"/>
  <text x="250" y="102" font-size="16" fill="#1a3a5c" font-weight="bold">Book Your Advising Appointment</text>
  <rect x="250" y="118" width="300" height="16" fill="#b8cce0" rx="3"/>
  <text x="270" y="131" font-size="11" fill="#555">View available time slots and book easily.</text>
  <rect x="240" y="148" width="120" height="32" fill="#f0a500" rx="5"/>
  <text x="262" y="170" font-size="12" fill="#fff" font-weight="bold">View Slots</text>
  <rect x="376" y="148" width="140" height="32" fill="none" stroke="#1a3a5c" stroke-width="2" rx="5"/>
  <text x="395" y="170" font-size="12" fill="#1a3a5c" font-weight="bold">My Appointments</text>

  <!-- Feature cards row -->
  <text x="20" y="244" font-size="12" fill="#888">Feature Cards</text>

  <!-- Card 1 -->
  <rect x="30" y="256" width="220" height="130" fill="white" rx="8" stroke="#dde3ec" stroke-width="1"/>
  <text x="120" y="290" font-size="22" text-anchor="middle" fill="#555">&#128197;</text>
  <rect x="60" y="300" width="120" height="14" fill="#e0e7f0" rx="3"/>
  <text x="120" y="313" font-size="11" text-anchor="middle" fill="#1a3a5c" font-weight="bold">Browse Slots</text>
  <rect x="50" y="322" width="140" height="10" fill="#eef1f6" rx="2"/>
  <rect x="60" y="337" width="120" height="10" fill="#eef1f6" rx="2"/>
  <rect x="70" y="352" width="100" height="10" fill="#eef1f6" rx="2"/>

  <!-- Card 2 -->
  <rect x="290" y="256" width="220" height="130" fill="white" rx="8" stroke="#dde3ec" stroke-width="1"/>
  <text x="400" y="290" font-size="22" text-anchor="middle" fill="#555">&#9989;</text>
  <rect x="330" y="300" width="140" height="14" fill="#e0e7f0" rx="3"/>
  <text x="400" y="313" font-size="11" text-anchor="middle" fill="#1a3a5c" font-weight="bold">Instant Booking</text>
  <rect x="320" y="322" width="160" height="10" fill="#eef1f6" rx="2"/>
  <rect x="330" y="337" width="140" height="10" fill="#eef1f6" rx="2"/>
  <rect x="340" y="352" width="120" height="10" fill="#eef1f6" rx="2"/>

  <!-- Card 3 -->
  <rect x="550" y="256" width="220" height="130" fill="white" rx="8" stroke="#dde3ec" stroke-width="1"/>
  <text x="660" y="290" font-size="22" text-anchor="middle" fill="#555">&#128203;</text>
  <rect x="590" y="300" width="140" height="14" fill="#e0e7f0" rx="3"/>
  <text x="660" y="313" font-size="11" text-anchor="middle" fill="#1a3a5c" font-weight="bold">Manage Appointments</text>
  <rect x="580" y="322" width="160" height="10" fill="#eef1f6" rx="2"/>
  <rect x="590" y="337" width="140" height="10" fill="#eef1f6" rx="2"/>
  <rect x="600" y="352" width="120" height="10" fill="#eef1f6" rx="2"/>

  <!-- Footer -->
  <rect x="0" y="490" width="800" height="30" fill="#d0d8e4"/>
  <text x="400" y="510" font-size="10" fill="#888" text-anchor="middle">© 2026 SJSU Academic Advising Scheduling System — CMPE 172 Term Project</text>

  <!-- Label -->
  <text x="400" y="476" font-size="11" fill="#aaa" text-anchor="middle" font-style="italic">Wireframe: Home Page (GET /)</text>
</svg>
