<svg xmlns="http://www.w3.org/2000/svg" width="800" height="520" font-family="Arial, sans-serif">
  <rect width="800" height="520" fill="#f5f7fa"/>

  <!-- Header -->
  <rect x="0" y="0" width="800" height="52" fill="#d0d8e4"/>
  <text x="20" y="32" font-size="14" fill="#333" font-weight="bold">[ SJSU Academic Advising Scheduler ]</text>
  <text x="530" y="32" font-size="12" fill="#666">[ Home ]  [ Slots ]  [ Appointments ]</text>

  <!-- Page title -->
  <text x="30" y="84" font-size="18" fill="#1a3a5c" font-weight="bold">Available Time Slots</text>
  <text x="30" y="104" font-size="12" fill="#888">Choose an open slot below to schedule your advising appointment.</text>

  <!-- Table header -->
  <rect x="30" y="120" width="740" height="36" fill="#1a3a5c" rx="4"/>
  <text x="48"  y="143" font-size="12" fill="white">#</text>
  <text x="90"  y="143" font-size="12" fill="white">Advisor</text>
  <text x="240" y="143" font-size="12" fill="white">Start Time</text>
  <text x="390" y="143" font-size="12" fill="white">End Time</text>
  <text x="530" y="143" font-size="12" fill="white">Status</text>
  <text x="650" y="143" font-size="12" fill="white">Action</text>

  <!-- Row 1 -->
  <rect x="30" y="156" width="740" height="38" fill="white"/>
  <text x="48"  y="180" font-size="11" fill="#333">1</text>
  <text x="90"  y="180" font-size="11" fill="#333">Dr. Dana Rivera</text>
  <text x="240" y="180" font-size="11" fill="#333">2026-03-20 09:00</text>
  <text x="390" y="180" font-size="11" fill="#333">09:30</text>
  <rect x="530" y="163" width="46" height="20" fill="#e6f4ea" rx="10"/>
  <text x="541" y="177" font-size="10" fill="#2e7d32" font-weight="bold">Open</text>
  <rect x="650" y="163" width="60" height="22" fill="#1a3a5c" rx="4"/>
  <text x="669" y="178" font-size="11" fill="white">Book</text>

  <!-- Row 2 -->
  <rect x="30" y="194" width="740" height="38" fill="#f5f7fa"/>
  <text x="48"  y="218" font-size="11" fill="#333">2</text>
  <text x="90"  y="218" font-size="11" fill="#333">Dr. Dana Rivera</text>
  <text x="240" y="218" font-size="11" fill="#333">2026-03-20 10:00</text>
  <text x="390" y="218" font-size="11" fill="#333">10:30</text>
  <rect x="530" y="201" width="46" height="20" fill="#e6f4ea" rx="10"/>
  <text x="541" y="215" font-size="10" fill="#2e7d32" font-weight="bold">Open</text>
  <rect x="650" y="201" width="60" height="22" fill="#1a3a5c" rx="4"/>
  <text x="669" y="216" font-size="11" fill="white">Book</text>

  <!-- Row 3 -->
  <rect x="30" y="232" width="740" height="38" fill="white"/>
  <text x="48"  y="256" font-size="11" fill="#333">3</text>
  <text x="90"  y="256" font-size="11" fill="#333">Dr. Eric Chen</text>
  <text x="240" y="256" font-size="11" fill="#333">2026-03-22 11:00</text>
  <text x="390" y="256" font-size="11" fill="#333">11:30</text>
  <rect x="530" y="239" width="46" height="20" fill="#e6f4ea" rx="10"/>
  <text x="541" y="253" font-size="10" fill="#2e7d32" font-weight="bold">Open</text>
  <rect x="650" y="239" width="60" height="22" fill="#1a3a5c" rx="4"/>
  <text x="669" y="254" font-size="11" fill="white">Book</text>

  <!-- Row 4 (faded) -->
  <rect x="30" y="270" width="740" height="38" fill="#f5f7fa"/>
  <text x="48"  y="294" font-size="11" fill="#bbb">4</text>
  <text x="90"  y="294" font-size="11" fill="#bbb">Dr. Eric Chen</text>
  <text x="240" y="294" font-size="11" fill="#bbb">2026-03-23 14:00</text>
  <text x="390" y="294" font-size="11" fill="#bbb">14:30</text>
  <rect x="530" y="277" width="46" height="20" fill="#e6f4ea" rx="10"/>
  <text x="541" y="291" font-size="10" fill="#2e7d32" font-weight="bold">Open</text>
  <rect x="650" y="277" width="60" height="22" fill="#1a3a5c" rx="4"/>
  <text x="669" y="292" font-size="11" fill="white">Book</text>

  <!-- Dots to indicate more rows -->
  <text x="400" y="328" font-size="16" fill="#ccc" text-anchor="middle">· · ·</text>

  <!-- Footer -->
  <rect x="0" y="490" width="800" height="30" fill="#d0d8e4"/>
  <text x="400" y="510" font-size="10" fill="#888" text-anchor="middle">© 2026 SJSU Academic Advising Scheduling System — CMPE 172 Term Project</text>

  <text x="400" y="476" font-size="11" fill="#aaa" text-anchor="middle" font-style="italic">Wireframe: View Available Slots (GET /slots)</text>
</svg>
