<svg xmlns="http://www.w3.org/2000/svg" width="700" height="400" font-family="Times New Roman, serif">
  <rect width="700" height="400" fill="white"/>

  <!-- H1 -->
  <text x="20" y="36" font-size="22" font-weight="bold" fill="black">Academic Advising Appointment Scheduler</text>

  <!-- Nav -->
  <text x="20" y="60" font-size="14" fill="black">
    <tspan text-decoration="underline" fill="blue">Home</tspan>
    <tspan fill="black"> | </tspan>
    <tspan text-decoration="underline" fill="blue">Available Slots</tspan>
    <tspan fill="black"> | </tspan>
    <tspan text-decoration="underline" fill="blue">Appointments</tspan>
  </text>

  <!-- HR -->
  <line x1="20" y1="72" x2="680" y2="72" stroke="black" stroke-width="1"/>

  <!-- H2 -->
  <text x="20" y="98" font-size="18" font-weight="bold" fill="black">Available Time Slots</text>

  <!-- Table with border -->
  <!-- Outer border -->
  <rect x="20" y="112" width="660" height="200" fill="white" stroke="black" stroke-width="1"/>

  <!-- Header row -->
  <rect x="20" y="112" width="660" height="28" fill="#ddd" stroke="black" stroke-width="1"/>
  <line x1="150" y1="112" x2="150" y2="312" stroke="black" stroke-width="1"/>
  <line x1="320" y1="112" x2="320" y2="312" stroke="black" stroke-width="1"/>
  <line x1="460" y1="112" x2="460" y2="312" stroke="black" stroke-width="1"/>
  <line x1="570" y1="112" x2="570" y2="312" stroke="black" stroke-width="1"/>
  <text x="28"  y="131" font-size="13" font-weight="bold" fill="black">ID</text>
  <text x="158" y="131" font-size="13" font-weight="bold" fill="black">Advisor</text>
  <text x="328" y="131" font-size="13" font-weight="bold" fill="black">Start Time</text>
  <text x="468" y="131" font-size="13" font-weight="bold" fill="black">End Time</text>
  <text x="578" y="131" font-size="13" font-weight="bold" fill="black">Action</text>

  <!-- Row 1 -->
  <line x1="20" y1="140" x2="680" y2="140" stroke="black" stroke-width="1"/>
  <text x="28"  y="157" font-size="13" fill="black">1</text>
  <text x="158" y="157" font-size="13" fill="black">Bryanna Ortiz</text>
  <text x="328" y="157" font-size="13" fill="black">2026-03-20 09:00</text>
  <text x="468" y="157" font-size="13" fill="black">09:30</text>
  <text x="578" y="157" font-size="13" fill="blue" text-decoration="underline">Book</text>

  <!-- Row 2 -->
  <line x1="20" y1="168" x2="680" y2="168" stroke="black" stroke-width="1"/>
  <text x="28"  y="185" font-size="13" fill="black">2</text>
  <text x="158" y="185" font-size="13" fill="black">Bryanna Ortiz</text>
  <text x="328" y="185" font-size="13" fill="black">2026-03-20 10:00</text>
  <text x="468" y="185" font-size="13" fill="black">10:30</text>
  <text x="578" y="185" font-size="13" fill="blue" text-decoration="underline">Book</text>

  <!-- Row 3 -->
  <line x1="20" y1="196" x2="680" y2="196" stroke="black" stroke-width="1"/>
  <text x="28"  y="213" font-size="13" fill="black">3</text>
  <text x="158" y="213" font-size="13" fill="black">Monica Serna</text>
  <text x="328" y="213" font-size="13" fill="black">2026-03-22 11:00</text>
  <text x="468" y="213" font-size="13" fill="black">11:30</text>
  <text x="578" y="213" font-size="13" fill="blue" text-decoration="underline">Book</text>

  <!-- Row 4 -->
  <line x1="20" y1="224" x2="680" y2="224" stroke="black" stroke-width="1"/>
  <text x="28"  y="241" font-size="13" fill="black">4</text>
  <text x="158" y="241" font-size="13" fill="black">Monica Serna</text>
  <text x="328" y="241" font-size="13" fill="black">2026-03-23 14:00</text>
  <text x="468" y="241" font-size="13" fill="black">14:30</text>
  <text x="578" y="241" font-size="13" fill="blue" text-decoration="underline">Book</text>

  <!-- Label -->
  <text x="350" y="385" font-size="11" fill="#aaa" text-anchor="middle" font-style="italic">Wireframe: Available Slots (GET /slots)</text>
</svg>
